<mxfile host="app.diagrams.net" modified="2023-10-08T19:16:06.814Z" agent="Mozilla/5.0 (Windows NT 10.0; Win64; x64) AppleWebKit/537.36 (KHTML, like Gecko) Chrome/117.0.0.0 Safari/537.36" etag="4k9DQ7_2ssMzBTVT2JJn" version="22.0.4" type="device">
  <diagram name="Page-1" id="7OTolSGP71RUh-Q2Kjf5">
    <mxGraphModel dx="1372" dy="830" grid="1" gridSize="10" guides="1" tooltips="1" connect="1" arrows="1" fold="1" page="1" pageScale="1" pageWidth="850" pageHeight="1100" math="0" shadow="0">
      <root>
        <mxCell id="0" />
        <mxCell id="1" parent="0" />
        <mxCell id="dZYMS4WzbdSUssse1WNk-3" style="edgeStyle=orthogonalEdgeStyle;rounded=0;orthogonalLoop=1;jettySize=auto;html=1;entryX=0;entryY=0.5;entryDx=0;entryDy=0;" edge="1" parent="1" source="dZYMS4WzbdSUssse1WNk-1" target="dZYMS4WzbdSUssse1WNk-2">
          <mxGeometry relative="1" as="geometry" />
        </mxCell>
        <mxCell id="dZYMS4WzbdSUssse1WNk-1" value="Angular frontend" style="rounded=1;whiteSpace=wrap;html=1;fontSize=15;" vertex="1" parent="1">
          <mxGeometry x="260" y="270" width="120" height="60" as="geometry" />
        </mxCell>
        <mxCell id="dZYMS4WzbdSUssse1WNk-2" value="Spring boot backend" style="rounded=1;whiteSpace=wrap;html=1;fontSize=15;" vertex="1" parent="1">
          <mxGeometry x="460" y="270" width="120" height="60" as="geometry" />
        </mxCell>
      </root>
    </mxGraphModel>
  </diagram>
</mxfile>
